<mxfile host="app.diagrams.net" modified="2023-04-10T22:12:41.900Z" agent="Mozilla/5.0 (Windows NT 10.0; Win64; x64) AppleWebKit/537.36 (KHTML, like Gecko) Chrome/112.0.0.0 Safari/537.36" version="21.1.5" etag="kIiHvN-iOzOtcKm2DHax" type="github">
  <diagram name="Page-1" id="8F3GOrR5Ju9ONVspa90Z">
    <mxGraphModel>
      <root>
        <mxCell id="0" />
        <mxCell id="1" parent="0" />
      </root>
    </mxGraphModel>
  </diagram>
</mxfile>
